<svg xmlns="http://www.w3.org/2000/svg" fill="none" viewBox="0 0 102 32" height="32" width="102">
<path fill="black" d="M25.6778 10.206V21.7928H21.9413L13.0479 13.1122V21.7928H10V10.206H13.6953L22.6287 18.889V10.206H25.6778Z"></path>
<path fill="black" d="M48.0566 13.2979C47.8322 12.9217 47.5631 12.5753 47.2529 12.2621C46.9439 11.9502 46.5914 11.6692 46.2013 11.4251C45.4294 10.9418 44.514 10.5798 43.4812 10.3465C42.4555 10.1167 41.3416 10 40.1701 10C38.9987 10 37.8883 10.1167 36.8684 10.3465C35.8415 10.5798 34.9285 10.9453 34.1578 11.4335C33.3776 11.9276 32.7537 12.5574 32.3036 13.3051C31.8501 14.0587 31.621 14.96 31.621 15.9839C31.621 17.0066 31.8466 17.9103 32.2931 18.6687C32.736 19.4224 33.3564 20.0558 34.1378 20.5499C34.9097 21.0392 35.8251 21.4071 36.8579 21.644C37.8848 21.8809 38.9987 22 40.1701 22C41.3416 22 42.459 21.8833 43.4906 21.6523C44.5317 21.4202 45.447 21.0547 46.2131 20.5653C46.9862 20.0712 47.6066 19.439 48.0566 18.6854C48.5102 17.927 48.7393 17.0174 48.7393 15.9839C48.7393 14.9612 48.5102 14.0575 48.0566 13.2979ZM40.1701 19.7974C39.3629 19.7974 38.6156 19.72 37.9482 19.5652C37.2903 19.4128 36.711 19.1747 36.2292 18.8556C35.7546 18.5437 35.3821 18.1449 35.1212 17.671C34.8616 17.1983 34.7288 16.6304 34.7288 15.9839C34.7288 15.3267 34.8639 14.7576 35.1295 14.2921C35.3974 13.8218 35.7698 13.4313 36.2375 13.1289C36.7133 12.8205 37.2926 12.5872 37.9576 12.4348C38.6321 12.28 39.377 12.2014 40.1701 12.2014C40.9632 12.2014 41.7082 12.28 42.3826 12.4348C43.0477 12.5872 43.6293 12.8229 44.1122 13.136C44.5869 13.4432 44.9629 13.8373 45.2308 14.3076C45.4963 14.7743 45.6315 15.3386 45.6315 15.9839C45.6315 16.6399 45.4963 17.2102 45.2308 17.6758C44.9617 18.1472 44.5892 18.5437 44.1204 18.8568C43.6446 19.1747 43.0629 19.4128 42.3932 19.5652C41.7117 19.72 40.9632 19.7974 40.1701 19.7974Z"></path>
<path fill="black" d="M66.7354 17.2412C67.0762 17.1412 67.404 17.015 67.7118 16.8638C68.1301 16.659 68.5014 16.409 68.8151 16.1196C69.1359 15.8256 69.3885 15.4839 69.5683 15.1029C69.7481 14.7183 69.8397 14.298 69.8397 13.8528C69.8397 13.2622 69.7011 12.73 69.4273 12.2716C69.1582 11.8216 68.7916 11.437 68.3405 11.1275C67.894 10.8227 67.3617 10.5905 66.7589 10.4357C66.1632 10.2834 65.5217 10.206 64.8531 10.206H54.6825V21.7928H57.7304V17.4829H63.449L67.0715 21.7928H70.56L66.7354 17.2412ZM64.7732 15.2803H57.7304V12.4086H64.7133C65.3184 12.4086 65.8189 12.5395 66.1996 12.7991C66.5568 13.0432 66.7307 13.3872 66.7307 13.8528C66.7307 14.2873 66.5592 14.6231 66.2055 14.8767C65.8319 15.1445 65.3501 15.2803 64.7732 15.2803Z"></path>
<path fill="black" d="M91.8308 14.5254C91.718 14.0766 91.55 13.6658 91.3267 13.2967C90.8826 12.5633 90.2669 11.9585 89.4985 11.5025C88.7394 11.0513 87.837 10.7179 86.8172 10.5131C85.8055 10.3095 84.7069 10.206 83.5507 10.206H76.5032V21.7928H83.9314C85.0899 21.7928 86.1709 21.6821 87.1426 21.4618C88.1237 21.2392 88.9838 20.8927 89.6959 20.4296C90.4173 19.9605 90.9883 19.3497 91.3914 18.6151C91.7956 17.8793 92 16.9935 92 15.9839C92 15.4624 91.9436 14.9743 91.8308 14.5254ZM83.7516 19.5914H79.5511V12.4086H83.5507C84.3474 12.4086 85.0911 12.4717 85.762 12.5955C86.42 12.7169 86.9911 12.9217 87.4599 13.2039C87.9181 13.4801 88.2824 13.8492 88.542 14.3004C88.8005 14.7505 88.9321 15.3172 88.9321 15.9839C88.9321 16.6435 88.8123 17.2067 88.5773 17.6603C88.3435 18.1091 88.0027 18.4794 87.5656 18.7592C87.1156 19.0449 86.5657 19.2569 85.9277 19.389C85.2791 19.5236 84.5459 19.5914 83.7516 19.5914Z"></path>
</svg>
