<svg xmlns="http://www.w3.org/2000/svg" fill="none" viewBox="0 0 94 32" height="32" width="94">
<path fill="#1F1C3E" d="M76.5005 7.28868C77.9336 8.52704 78.9137 10.2138 79.3154 12.0623C79.326 12.1108 79.3366 12.1592 79.3475 12.2092C79.5849 13.4114 79.494 14.7249 78.8596 15.7949C78.0016 17.0446 76.776 17.7721 75.2976 18.0566C73.9694 18.2946 72.594 18.2545 71.2493 18.254C71.211 18.254 71.1727 18.254 71.1333 18.254C70.7431 18.2538 70.353 18.2532 69.9628 18.2517C69.814 18.2511 69.6651 18.2508 69.5163 18.2504C69.4468 18.2502 69.3773 18.2499 69.3079 18.2495C68.3422 18.2163 68.3422 18.2163 67.4189 18.435C67.3277 18.5564 67.3277 18.5564 67.3277 18.7081C67.3192 18.7828 67.3192 18.7828 67.3106 18.8589C67.3821 19.5613 68.0599 20.1413 68.5751 20.5678C70.3552 21.9729 72.8948 22.4746 75.114 22.2153C77.2093 21.9378 79.21 21.1128 80.7669 19.6642C80.8582 19.5795 80.9521 19.4994 81.0475 19.4194C82.6723 17.9907 83.5094 15.8101 83.6912 13.701C83.7062 13.3104 83.7213 12.9199 83.7368 12.5175C85.3613 12.5175 86.9858 12.5175 88.6595 12.5175C88.6595 13.4317 88.6595 13.4317 88.6082 13.8717C88.5993 13.9491 88.5993 13.9491 88.5902 14.0281C88.2538 16.7491 87.1676 19.3656 85.4233 21.4848C85.4034 21.5093 85.3836 21.5338 85.3631 21.5591C84.805 22.246 84.1729 22.9106 83.4633 23.4421C83.4094 23.4841 83.3555 23.5261 83.3016 23.5682C81.2614 25.1466 78.8018 26.1001 76.2615 26.4919C76.2195 26.4988 76.1774 26.5057 76.1341 26.5128C74.6785 26.7429 73.0643 26.7474 71.6123 26.4919C71.5659 26.4841 71.5196 26.4763 71.4718 26.4683C70.1903 26.248 68.9288 25.8728 67.7777 25.2623C67.6926 25.2175 67.607 25.1742 67.5211 25.1312C65.026 23.8647 63.2373 21.5087 62.374 18.8877C61.483 16.0967 61.7108 13.0177 63.0266 10.4046C63.3771 9.72706 63.811 9.12474 64.3194 8.55732C64.3526 8.51991 64.3526 8.51991 64.3865 8.48175C67.2784 5.23925 72.2383 4.34329 76.5005 7.28868ZM67.6797 11.1715C67.2099 11.7208 67.0012 12.2989 67.0542 13.0182C67.1679 13.4669 67.5108 13.8407 67.8747 14.1107C68.3755 14.4067 69.0859 14.3516 69.6516 14.3488C69.7242 14.3487 69.7968 14.3487 69.8693 14.3487C70.0204 14.3486 70.1715 14.3483 70.3225 14.3476C70.5135 14.3469 70.7045 14.3467 70.8955 14.3467C72.6894 14.4506 72.6894 14.4506 74.2417 13.738C74.5597 13.4068 74.7316 13.023 74.7574 12.563C74.7035 11.8324 74.2254 11.1897 73.6958 10.7169C71.8122 9.12868 69.3185 9.42541 67.6797 11.1715Z"></path>
<path fill="#1F1C3E" d="M36.0227 8.45778C36.0964 8.52072 36.1695 8.58423 36.2421 8.64839C36.2951 8.6939 36.2951 8.6939 36.3491 8.74032C36.4676 8.84404 36.5831 8.9503 36.6979 9.05807C36.7233 9.08187 36.7487 9.10568 36.7748 9.13021C38.2385 10.5144 39.2735 12.4543 39.3473 14.4951C39.4 17.0838 38.6487 19.3915 36.8507 21.2983C35.2929 22.918 33.091 23.9458 30.8303 23.9976C29.238 24.0144 27.7295 23.8146 26.4094 22.8667C26.3812 22.8465 26.353 22.8263 26.324 22.8055C26.3029 22.7903 26.2817 22.7751 26.2599 22.7594C26.26 22.81 26.2601 22.8607 26.2602 22.9129C26.2611 23.3891 26.2618 23.8654 26.2623 24.3417C26.2625 24.5865 26.2628 24.8314 26.2634 25.0763C26.2638 25.3124 26.2641 25.5485 26.2642 25.7846C26.2643 25.8749 26.2645 25.9652 26.2647 26.0555C26.2651 26.1815 26.2651 26.3075 26.2651 26.4335C26.2653 26.4713 26.2654 26.509 26.2656 26.5478C26.2651 26.8054 26.2651 26.8054 26.2143 26.8561C26.1503 26.8605 26.0861 26.8617 26.022 26.8616C25.9805 26.8617 25.939 26.8617 25.8963 26.8618C25.8275 26.8615 25.8275 26.8615 25.7573 26.8613C25.7092 26.8613 25.6612 26.8613 25.6117 26.8613C25.4522 26.8613 25.2926 26.8609 25.133 26.8606C25.0227 26.8605 24.9124 26.8604 24.8021 26.8604C24.5112 26.8602 24.2202 26.8597 23.9292 26.8592C23.6326 26.8588 23.3359 26.8586 23.0393 26.8583C22.4567 26.8579 21.8742 26.8571 21.2916 26.8561C21.2647 24.0914 21.2412 21.3268 21.2404 18.5619C21.2403 18.3967 21.2402 18.2315 21.24 18.0663C21.2371 15.1955 21.2371 15.1955 21.3486 13.9628C21.3514 13.931 21.3543 13.8992 21.3572 13.8665C21.5719 11.5171 22.5776 9.58586 24.3911 8.05664C25.0732 7.49943 25.8481 7.05238 26.6701 6.73658C26.7008 6.72469 26.7315 6.7128 26.763 6.70055C29.8959 5.51096 33.4659 6.39774 36.0227 8.45778ZM27.5362 12.0623C27.5072 12.0875 27.4782 12.1126 27.4484 12.1384C26.7791 12.7592 26.3089 13.7422 26.2518 14.6485C26.2262 15.8591 26.4314 16.963 27.2969 17.8754C27.3609 17.9411 27.4257 18.006 27.4906 18.0709C27.5267 18.1075 27.5629 18.1441 27.6001 18.1818C28.1316 18.6905 28.7484 18.97 29.4506 19.1634C29.4934 19.1755 29.5362 19.1876 29.5804 19.2002C30.6812 19.4528 31.8353 19.148 32.778 18.5716C32.9391 18.4594 33.0874 18.3381 33.2338 18.2074C33.2712 18.1744 33.3086 18.1413 33.3472 18.1072C34.0965 17.4043 34.5654 16.4198 34.6186 15.3934C34.6544 14.1694 34.2793 13.0819 33.4373 12.1769C32.8615 11.5816 32.161 11.2175 31.365 11.0154C31.3022 10.9987 31.3022 10.9987 31.2382 10.9816C29.8942 10.6792 28.5411 11.1753 27.5362 12.0623Z"></path>
<path fill="#1F1C3E" d="M41.0738 0C42.6983 0 44.3228 0 45.9965 0C45.999 0.617079 45.999 0.617079 46.0016 1.24662C46.0032 1.54007 46.0048 1.83351 46.0066 2.12696C46.0089 2.50724 46.0109 2.88753 46.0123 3.26782C46.0133 3.56889 46.0148 3.86994 46.0169 4.171C46.018 4.3304 46.0189 4.48979 46.0192 4.64919C46.0195 4.82717 46.0209 5.00513 46.0224 5.1831C46.0223 5.23591 46.0222 5.28873 46.0222 5.34314C46.0227 5.39171 46.0233 5.44028 46.0239 5.49032C46.0241 5.53241 46.0243 5.5745 46.0245 5.61786C46.0459 5.76134 46.0938 5.84615 46.1788 5.96303C46.3211 6.05778 46.3536 6.0656 46.5154 6.06674C46.5562 6.06725 46.5969 6.06776 46.6389 6.06828C46.7061 6.06843 46.7061 6.06843 46.7746 6.06858C46.8225 6.06904 46.8704 6.06951 46.9198 6.06998C47.0751 6.07138 47.2305 6.07216 47.3858 6.07292C47.4816 6.07369 47.5774 6.0745 47.6732 6.07535C48.0288 6.07823 48.3843 6.08033 48.7399 6.08252C49.9315 6.09097 49.9315 6.09097 51.1471 6.09959C51.1471 7.7219 51.1471 9.3442 51.1471 11.0157C48.7684 11.0299 48.7684 11.0299 48.0175 11.0333C47.7952 11.035 47.7952 11.035 47.5729 11.0368C47.474 11.0376 47.3751 11.038 47.2761 11.0383C47.1262 11.0387 46.9763 11.04 46.8263 11.0415C46.7823 11.0414 46.7383 11.0414 46.693 11.0413C46.3899 11.0455 46.3899 11.0455 46.1332 11.1978C46.0083 11.3597 46.0289 11.5527 46.0295 11.7483C46.0292 11.8039 46.0292 11.8039 46.0288 11.8605C46.0282 11.9831 46.0282 12.1057 46.0283 12.2283C46.0282 12.3141 46.028 12.3999 46.0278 12.4856C46.0274 12.6658 46.0274 12.8459 46.0277 13.0261C46.0279 13.255 46.0272 13.4839 46.0261 13.7129C46.0254 13.8903 46.0254 14.0678 46.0255 14.2453C46.0255 14.3295 46.0253 14.4138 46.0248 14.4981C46.0188 15.7371 46.3323 16.8611 47.2043 17.7758C47.9624 18.5269 49.0501 18.9834 50.1162 18.9888C50.2338 18.9878 50.3515 18.9863 50.4691 18.9844C50.5879 18.9827 50.7067 18.9815 50.8255 18.9803C50.8775 18.9795 50.9294 18.9787 50.983 18.9778C51.1015 18.9816 51.1015 18.9816 51.1471 19.0271C51.1515 19.091 51.1527 19.1551 51.1526 19.2192C51.1527 19.2813 51.1527 19.2813 51.1528 19.3447C51.1526 19.3905 51.1524 19.4363 51.1523 19.4835C51.1523 19.5315 51.1523 19.5794 51.1523 19.6288C51.1523 19.7882 51.1519 19.9476 51.1516 20.1069C51.1515 20.2171 51.1514 20.3272 51.1514 20.4374C51.1512 20.728 51.1507 21.0185 51.1502 21.3091C51.1498 21.6054 51.1496 21.9016 51.1493 22.1979C51.1488 22.7796 51.1481 23.3614 51.1471 23.9432C50.9562 23.9444 50.7653 23.9454 50.5744 23.946C50.5097 23.9462 50.445 23.9466 50.3804 23.947C48.771 23.9579 47.2299 23.5679 45.8142 22.8052C45.7871 22.7909 45.7601 22.7766 45.7322 22.7619C44.5707 22.1448 43.5331 21.2256 42.7602 20.1651C42.7414 20.1394 42.7226 20.1138 42.7032 20.0873C42.0258 19.1528 41.5627 18.1093 41.2874 16.9929C41.2763 16.9481 41.2653 16.9033 41.2539 16.8571C41.1119 16.2476 41.06 15.6448 41.0628 15.0204C41.0628 14.955 41.0627 14.8896 41.0626 14.8242C41.0624 14.6468 41.0627 14.4694 41.0632 14.292C41.0636 14.0998 41.0634 13.9076 41.0634 13.7154C41.0633 13.3832 41.0636 13.051 41.0641 12.7188C41.0649 12.2385 41.0651 11.7582 41.0652 11.2779C41.0654 10.4985 41.066 9.7191 41.0669 8.93968C41.0677 8.18296 41.0684 7.42625 41.0687 6.66954C41.0688 6.62282 41.0688 6.5761 41.0688 6.52797C41.0689 6.29358 41.0691 6.05919 41.0692 5.82481C41.0701 3.8832 41.0718 1.9416 41.0738 0Z"></path>
<path fill="#1F1C3E" d="M10.0981 6.0531C10.1808 6.0532 10.1808 6.0532 10.2651 6.05329C10.4004 6.05346 10.5358 6.05369 10.6711 6.05399C10.6721 6.69418 10.6729 7.33437 10.6734 7.97456C10.6737 8.2718 10.674 8.56903 10.6745 8.86626C10.675 9.15284 10.6753 9.43942 10.6754 9.72601C10.6755 9.83561 10.6757 9.94522 10.6759 10.0548C10.6762 10.2078 10.6763 10.3607 10.6763 10.5136C10.6764 10.5594 10.6766 10.6052 10.6767 10.6524C10.6767 10.6939 10.6766 10.7353 10.6766 10.778C10.6766 10.8323 10.6766 10.8323 10.6767 10.8877C10.6711 10.9701 10.6711 10.9701 10.6255 11.0156C10.5483 11.0174 10.471 11.0161 10.3939 11.0136C9.0289 10.9826 7.83275 11.2516 6.79671 12.1991C6.40554 12.5847 6.12332 13.013 5.89649 13.5106C5.88365 13.5381 5.8708 13.5655 5.85757 13.5938C5.61598 14.1485 5.59151 14.717 5.59335 15.3104C5.59309 15.3876 5.59276 15.4648 5.59239 15.542C5.5917 15.7069 5.59143 15.8718 5.5915 16.0368C5.59159 16.2984 5.59069 16.5601 5.58967 16.8218C5.58781 17.3305 5.58695 17.8392 5.5862 18.3479C5.58517 18.9946 5.58363 19.6413 5.58131 20.2879C5.58041 20.5471 5.57997 20.8064 5.5799 21.0656C5.57977 21.228 5.57927 21.3903 5.57869 21.5527C5.5785 21.627 5.57845 21.7013 5.57858 21.7756C5.58099 23.3276 5.18038 24.6838 4.51767 26.0825C4.30314 26.0179 4.11044 25.928 3.91373 25.8225C3.88245 25.806 3.85116 25.7894 3.81893 25.7723C3.71747 25.7185 3.61618 25.6644 3.5149 25.6102C3.4443 25.5727 3.37369 25.5351 3.30308 25.4976C2.88776 25.2766 2.47357 25.0536 2.06104 24.8274C1.65515 24.605 1.24672 24.3874 0.838117 24.17C0.786462 24.1425 0.734808 24.1149 0.681588 24.0866C0.61275 24.0499 0.61275 24.0499 0.54252 24.0126C0.422217 23.9468 0.304566 23.8779 0.1875 23.8065C0.222659 23.5457 0.309284 23.3192 0.403831 23.0748C0.563782 22.6073 0.565381 22.1313 0.56451 21.6428C0.56471 21.568 0.564952 21.4931 0.565231 21.4183C0.565753 21.2579 0.566004 21.0975 0.566047 20.9371C0.566136 20.6823 0.566963 20.4274 0.567904 20.1725C0.570137 19.539 0.571547 18.9055 0.572522 18.272C0.57328 17.7802 0.574335 17.2885 0.576306 16.7967C0.577126 16.5855 0.577693 16.3742 0.577614 16.163C0.577292 14.9248 0.601057 13.7137 0.962373 12.5177C0.976706 12.4697 0.976706 12.4697 0.991328 12.4207C1.32807 11.322 1.89722 10.2917 2.64886 9.42242C2.67889 9.38745 2.70891 9.35247 2.73985 9.31644C2.84417 9.19792 2.95092 9.08226 3.05909 8.96722C3.08152 8.94328 3.10395 8.91933 3.12706 8.89466C4.63665 7.29617 6.72335 6.35322 8.89343 6.09951C8.94184 6.09352 8.99026 6.08754 9.04014 6.08137C9.39216 6.04641 9.74472 6.05232 10.0981 6.0531Z"></path>
<path fill="#1F1C3E" d="M54.7021 11.0155C56.3266 11.0155 57.9511 11.0155 59.6249 11.0155C59.6249 15.2816 59.6249 19.5476 59.6249 23.943C58.0004 23.943 56.3759 23.943 54.7021 23.943C54.7021 19.6769 54.7021 15.4108 54.7021 11.0155Z"></path>
<path fill="#1F1C3E" d="M13.3154 11.0155C14.9399 11.0155 16.5644 11.0155 18.2382 11.0155C18.2382 15.2816 18.2382 19.5476 18.2382 23.943C16.6137 23.943 14.9892 23.943 13.3154 23.943C13.3154 19.6769 13.3154 15.4108 13.3154 11.0155Z"></path>
<path fill="#1F1C3E" d="M58.8955 4.23291C59.512 4.69064 59.9322 5.32682 60.1032 6.07645C60.1793 6.60421 60.1637 7.14053 59.9894 7.64686C59.9773 7.68536 59.9651 7.72385 59.9526 7.76351C59.7107 8.45057 59.1497 9.0146 58.5109 9.34512C57.7249 9.71779 56.9243 9.72004 56.1039 9.46764C55.3197 9.17437 54.7619 8.56405 54.4187 7.81885C54.1356 7.17628 54.1434 6.30467 54.3714 5.64384C54.6867 4.89161 55.1929 4.31197 55.94 3.96424C56.9382 3.57896 57.985 3.65597 58.8955 4.23291Z"></path>
<path fill="#1F1C3E" d="M17.5838 4.28939C18.1944 4.77953 18.6282 5.45343 18.7389 6.23614C18.8041 7.12043 18.6431 7.8798 18.0923 8.59461C17.5828 9.17999 16.8759 9.57149 16.0982 9.63575C15.1765 9.69267 14.4311 9.42582 13.7188 8.84195C13.2205 8.37787 12.8737 7.64086 12.8437 6.96143C12.829 6.0688 12.9824 5.32474 13.6188 4.65862C13.6714 4.60581 13.6714 4.60581 13.7251 4.55193C13.7713 4.50334 13.7713 4.50334 13.8185 4.45378C14.7957 3.49817 16.5094 3.49168 17.5838 4.28939Z"></path>
<path fill="#1F1C3E" d="M77.9483 29.2234C78.0003 29.5458 78.0522 29.8683 78.1041 30.1908C78.1217 30.3005 78.1394 30.4103 78.1571 30.5201C78.1825 30.6776 78.2079 30.8351 78.2332 30.9926C78.2411 31.0419 78.2491 31.0912 78.2573 31.142C78.2646 31.1876 78.2719 31.2331 78.2795 31.2801C78.2892 31.3404 78.2892 31.3404 78.2991 31.402C78.3129 31.4993 78.3129 31.4993 78.3129 31.5904C77.8051 31.688 77.8051 31.688 77.6324 31.5818C77.5637 31.4993 77.5637 31.4993 77.4932 31.3989C77.3679 31.2255 77.2213 31.0762 77.0737 30.9218C76.9017 30.7403 76.7338 30.5596 76.5809 30.3613C76.6369 30.8476 76.6967 31.333 76.7632 31.818C76.5827 31.848 76.4022 31.8781 76.2162 31.909C76.1641 31.5874 76.1122 31.2658 76.0604 30.9441C76.0428 30.8346 76.0251 30.7252 76.0074 30.6157C75.9819 30.4586 75.9566 30.3014 75.9313 30.1442C75.9234 30.0952 75.9154 30.0461 75.9072 29.9955C75.8999 29.95 75.8926 29.9044 75.885 29.8575C75.8786 29.8173 75.8721 29.7772 75.8654 29.7359C75.8516 29.633 75.8516 29.633 75.8516 29.4965C76.0368 29.4333 76.2021 29.3952 76.3985 29.4054C76.5732 29.5254 76.6823 29.6927 76.8088 29.8606C76.9014 29.9652 76.9975 30.0665 77.0936 30.1679C77.2633 30.349 77.4261 30.5337 77.5836 30.7255C77.5797 30.6975 77.5758 30.6696 77.5718 30.6408C77.5538 30.5116 77.536 30.3824 77.5181 30.2532C77.512 30.2093 77.5058 30.1653 77.4995 30.1201C77.4695 29.9024 77.4411 29.6846 77.4168 29.4663C77.4106 29.4108 77.4106 29.4108 77.4043 29.3543C77.4028 29.312 77.4028 29.312 77.4013 29.2689C77.534 29.1364 77.7831 29.1746 77.9483 29.2234Z"></path>
<path fill="#1F1C3E" d="M80.4556 28.7681C80.5616 28.853 80.6401 28.9368 80.7291 29.0412C80.7291 29.0712 80.7291 29.1013 80.7291 29.1322C80.4752 29.2434 80.3237 29.2899 80.0454 29.2232C80.0153 29.2082 79.9852 29.1932 79.9542 29.1777C79.7153 29.1594 79.564 29.1841 79.3617 29.3143C79.1888 29.473 79.1457 29.618 79.1286 29.8447C79.1372 30.0214 79.1983 30.1547 79.2705 30.3157C79.2856 30.3608 79.3006 30.4058 79.3161 30.4523C79.5336 30.5826 79.7493 30.6149 79.9998 30.5888C80.2127 30.5111 80.3349 30.4166 80.4556 30.2247C80.473 30.134 80.4885 30.043 80.5012 29.9516C80.4529 29.968 80.4046 29.9844 80.3548 30.0013C80.2916 30.0227 80.2283 30.044 80.165 30.0654C80.1173 30.0816 80.1173 30.0816 80.0685 30.0982C79.8278 30.1792 79.8278 30.1792 79.7263 30.1792C79.6962 30.044 79.6662 29.9088 79.6352 29.7695C80.0413 29.6343 80.4474 29.4991 80.8659 29.3598C81.0234 29.5958 81.0722 29.8056 81.0482 30.0881C80.9667 30.4459 80.819 30.7367 80.5098 30.9444C80.1919 31.1255 79.8494 31.1852 79.4883 31.1155C79.166 31.0261 78.9321 30.8507 78.743 30.5755C78.5499 30.2281 78.4917 29.8755 78.5868 29.4878C78.6916 29.1885 78.8881 28.9599 79.1594 28.7965C79.5725 28.6015 80.0416 28.5239 80.4556 28.7681Z"></path>
<path fill="#1F1C3E" d="M87.6993 23.7486C87.9282 23.868 88.0773 24.0173 88.1589 24.2616C88.1649 24.3498 88.1649 24.3498 88.1646 24.4437C88.1647 24.4901 88.1647 24.4901 88.1649 24.5376C88.1589 24.6257 88.1589 24.6257 88.1133 24.7623C88.4442 24.8374 88.7751 24.9125 89.1161 24.9899C89.1161 25.1619 89.0706 25.193 88.9565 25.3171C88.9121 25.3659 88.9121 25.3659 88.8668 25.4158C88.8438 25.4405 88.8207 25.4652 88.797 25.4906C88.6659 25.4623 88.5349 25.4339 88.4039 25.4053C88.367 25.3973 88.3302 25.3894 88.2922 25.3813C88.0912 25.3372 87.8972 25.2871 87.7031 25.2175C87.688 25.2776 87.673 25.3377 87.6575 25.3996C87.6888 25.4276 87.7201 25.4556 87.7524 25.4844C87.7935 25.5212 87.8345 25.558 87.8768 25.5959C87.9176 25.6323 87.9583 25.6688 88.0002 25.7063C88.0859 25.7843 88.1692 25.8629 88.25 25.9458C88.1909 26.1229 88.1266 26.2409 87.9766 26.3555C87.7809 26.347 87.6833 26.2111 87.5549 26.0767C87.3853 25.9 87.2114 25.7363 87.026 25.5763C86.8525 25.4242 86.6856 25.2651 86.518 25.1065C86.4827 25.0732 86.4473 25.0399 86.411 25.0056C86.325 24.9246 86.2391 24.8435 86.1533 24.7623C86.2489 24.5537 86.3916 24.4058 86.5465 24.2388C86.5734 24.2086 86.6004 24.1784 86.6282 24.1473C86.9103 23.8424 87.2683 23.5847 87.6993 23.7486ZM87.0649 24.3526C86.9812 24.4551 86.9102 24.5606 86.837 24.6713C86.9724 24.7914 87.1078 24.9116 87.2473 25.0354C87.4297 24.9443 87.5293 24.8732 87.6575 24.7168C87.6955 24.5802 87.6955 24.5802 87.6575 24.4437C87.5578 24.3099 87.5578 24.3099 87.4296 24.2161C87.2583 24.2161 87.2026 24.2512 87.0649 24.3526Z"></path>
<path fill="#1F1C3E" d="M93.7654 11.3341C93.8024 11.5416 93.8163 11.72 93.7654 11.9259C93.587 12.0922 93.3933 12.1852 93.1728 12.29C93.1307 12.3157 93.0886 12.3414 93.0452 12.3679C92.9449 12.4266 92.9449 12.4266 92.8538 12.4266C92.8538 12.5017 92.8538 12.5768 92.8538 12.6542C92.8989 12.6391 92.944 12.6241 92.9905 12.6086C93.0514 12.605 93.1124 12.6037 93.1734 12.6042C93.2252 12.6044 93.2252 12.6044 93.278 12.6046C93.3138 12.605 93.3496 12.6054 93.3865 12.6058C93.4228 12.606 93.4592 12.6062 93.4966 12.6064C93.5862 12.607 93.6758 12.6078 93.7654 12.6086C93.8296 12.801 93.811 12.9322 93.811 13.1549C92.9987 13.1699 92.1865 13.1849 91.3496 13.2004C91.3496 12.0169 91.3496 12.0169 91.4864 11.6527C91.7396 11.4102 91.8849 11.363 92.2265 11.367C92.4041 11.3848 92.4958 11.4413 92.6259 11.5617C92.6879 11.6519 92.7488 11.7429 92.8082 11.8348C92.9098 11.777 93.0114 11.7191 93.113 11.6613C93.1415 11.6451 93.1701 11.6288 93.1995 11.6121C93.2275 11.5961 93.2556 11.5801 93.2845 11.5637C93.3121 11.548 93.3396 11.5323 93.368 11.5161C93.438 11.4755 93.5068 11.4331 93.5754 11.3905C93.6742 11.3341 93.6742 11.3341 93.7654 11.3341ZM91.8645 12.0005C91.7883 12.139 91.7917 12.2355 91.7969 12.3924C91.7997 12.4788 91.8025 12.5652 91.8054 12.6542C92.016 12.6542 92.2266 12.6542 92.4435 12.6542C92.4473 12.5678 92.4511 12.4814 92.4549 12.3924C92.4581 12.3196 92.4581 12.3196 92.4614 12.2452C92.4546 12.104 92.4546 12.104 92.3618 12.0005C92.2024 11.8822 92.0148 11.856 91.8645 12.0005Z"></path>
<path fill="#1F1C3E" d="M90.7114 17.1605C90.9657 17.1923 91.1974 17.2709 91.4387 17.3534C91.4817 17.3681 91.5247 17.3828 91.569 17.3979C91.6595 17.4288 91.75 17.46 91.8404 17.4912C91.9792 17.5389 92.1183 17.5856 92.2575 17.6323C92.3454 17.6626 92.4333 17.6929 92.5212 17.7233C92.563 17.7371 92.6048 17.751 92.6479 17.7653C92.6862 17.7788 92.7246 17.7923 92.7641 17.8062C92.798 17.8178 92.8319 17.8294 92.8668 17.8413C92.9448 17.8888 92.9448 17.8888 92.9805 17.9789C92.9928 18.0927 92.9687 18.1593 92.9249 18.2644C92.9052 18.3126 92.9052 18.3126 92.8852 18.3618C92.8748 18.386 92.8644 18.4102 92.8537 18.4351C92.5114 18.3478 92.181 18.242 91.8509 18.1164C91.8396 18.1737 91.8283 18.231 91.8167 18.29C91.7607 18.5444 91.671 18.7841 91.5774 19.0268C91.6088 19.0346 91.6403 19.0423 91.6727 19.0503C91.9593 19.1241 92.2229 19.2162 92.489 19.3454C92.4749 19.4119 92.4606 19.4782 92.4463 19.5446C92.4384 19.5816 92.4304 19.6185 92.4223 19.6566C92.3979 19.7551 92.3979 19.7551 92.3523 19.8462C92.0494 19.7579 91.7506 19.6618 91.4531 19.5569C91.4133 19.5429 91.3735 19.529 91.3325 19.5146C91.2071 19.4706 91.0817 19.4265 90.9564 19.3824C90.8706 19.3523 90.7849 19.3223 90.6991 19.2922C90.4904 19.219 90.2818 19.1457 90.0732 19.0723C90.1184 18.724 90.1184 18.724 90.21 18.5716C90.4445 18.5978 90.6453 18.6512 90.8681 18.7338C90.9244 18.7545 90.9808 18.7752 91.0388 18.7966C91.1024 18.8204 91.1024 18.8204 91.1672 18.8447C91.1723 18.8066 91.1774 18.7685 91.1827 18.7292C91.2157 18.5563 91.2687 18.401 91.3296 18.2359C91.3402 18.2068 91.3509 18.1776 91.3619 18.1475C91.3879 18.0764 91.4143 18.0054 91.4407 17.9344C91.4092 17.9266 91.3778 17.9189 91.3454 17.9109C91.0575 17.8367 90.7975 17.7432 90.529 17.6157C90.5892 17.4655 90.6494 17.3153 90.7114 17.1605Z"></path>
<path fill="#1F1C3E" d="M74.0744 29.542C74.2849 29.542 74.4955 29.542 74.7125 29.542C74.8287 29.8489 74.9447 30.1559 75.0605 30.463C75.0999 30.5674 75.1394 30.6719 75.179 30.7762C75.2358 30.9264 75.2924 31.0765 75.349 31.2267C75.3667 31.2734 75.3844 31.32 75.4027 31.368C75.4191 31.4117 75.4355 31.4555 75.4525 31.5005C75.4669 31.5388 75.4814 31.5771 75.4963 31.6166C75.5329 31.7269 75.5329 31.7269 75.5785 31.9545C75.398 31.9545 75.2175 31.9545 75.0316 31.9545C74.9714 31.8193 74.9112 31.6841 74.8492 31.5448C74.5484 31.5448 74.2476 31.5448 73.9376 31.5448C73.9075 31.6951 73.8775 31.8453 73.8465 32C73.6509 32 73.4554 32 73.2539 32C73.5274 31.1807 73.8009 30.3613 74.0744 29.542ZM74.3934 30.2703C74.2791 30.5406 74.1837 30.803 74.1199 31.0896C74.3155 31.0896 74.511 31.0896 74.7125 31.0896C74.6313 30.8115 74.5442 30.5403 74.439 30.2703C74.424 30.2703 74.4089 30.2703 74.3934 30.2703Z"></path>
<path fill="#1F1C3E" d="M93.6281 15.0214C93.6216 15.0868 93.6149 15.1522 93.6081 15.2177C93.6044 15.2541 93.6007 15.2905 93.5969 15.3281C93.5825 15.431 93.5825 15.431 93.5369 15.5676C93.3714 15.5826 93.206 15.5976 93.0355 15.6131C93.0289 15.6873 93.0223 15.7614 93.0156 15.8379C92.9948 16.0668 92.9706 16.2951 92.9443 16.5235C93.0647 16.5986 93.185 16.6737 93.309 16.7511C93.2789 16.9314 93.2488 17.1116 93.2178 17.2973C93.0307 17.2226 92.875 17.144 92.7026 17.0425C92.6753 17.0266 92.6481 17.0106 92.6201 16.9942C92.5325 16.9427 92.445 16.891 92.3575 16.8393C92.2976 16.804 92.2377 16.7688 92.1778 16.7336C91.7788 16.4987 91.3805 16.2626 90.9844 16.0228C90.9908 15.9507 90.9975 15.8786 91.0043 15.8066C91.008 15.7664 91.0117 15.7263 91.0155 15.6849C91.0283 15.5814 91.0492 15.4863 91.0755 15.3855C91.4097 15.3335 91.7439 15.2816 92.0782 15.2299C92.1919 15.2123 92.3056 15.1947 92.4193 15.1769C92.5827 15.1515 92.7461 15.1262 92.9095 15.101C92.9858 15.0891 92.9858 15.0891 93.0637 15.0769C93.1111 15.0696 93.1586 15.0623 93.2075 15.0548C93.2492 15.0483 93.2909 15.0419 93.3338 15.0352C93.4457 15.0214 93.4457 15.0214 93.6281 15.0214ZM91.9957 15.7497C91.9641 15.754 91.9325 15.7584 91.9 15.7628C91.8227 15.7735 91.7454 15.7843 91.6681 15.7952C91.8372 15.939 92.01 16.0449 92.2065 16.148C92.2594 16.1759 92.3124 16.2038 92.3669 16.2326C92.4071 16.2535 92.4472 16.2744 92.4885 16.2959C92.5683 16.0045 92.5683 16.0045 92.5797 15.7042C92.382 15.698 92.191 15.7221 91.9957 15.7497Z"></path>
<path fill="#1F1C3E" d="M88.4777 21.8945C88.6356 21.9847 88.6356 21.9847 88.7967 22.0766C88.7967 22.2943 88.7208 22.3813 88.5916 22.5432C88.5721 22.5684 88.5525 22.5936 88.5323 22.6196C88.4841 22.6817 88.4354 22.7434 88.3865 22.8049C88.4479 22.9523 88.5013 23.0161 88.6429 23.0894C88.7191 23.1288 88.7191 23.1288 88.7967 23.1691C88.8088 23.1435 88.821 23.1179 88.8334 23.0915C88.8922 22.9788 88.9591 22.876 89.0303 22.7708C89.0549 22.7344 89.0795 22.698 89.1048 22.6605C89.1235 22.6331 89.1421 22.6056 89.1614 22.5773C89.3754 22.6011 89.395 22.6741 89.5716 22.8504C89.4212 23.0607 89.2708 23.271 89.1158 23.4877C89.176 23.5178 89.2361 23.5478 89.2981 23.5787C89.4052 23.6383 89.5111 23.6997 89.6172 23.7608C89.6284 23.7362 89.6395 23.7115 89.651 23.6861C89.7217 23.5537 89.8071 23.4378 89.8964 23.317C89.9294 23.2722 89.9624 23.2274 89.9964 23.1812C90.0343 23.1301 90.0343 23.1301 90.073 23.078C90.226 23.1355 90.3298 23.1809 90.4377 23.3056C90.3706 23.5062 90.2606 23.6573 90.13 23.8206C90.089 23.8727 90.0481 23.9249 90.0071 23.977C89.9873 24.0022 89.9674 24.0274 89.9469 24.0533C89.8344 24.1967 89.7261 24.3431 89.6172 24.4891C89.346 24.3109 89.0794 24.1276 88.8167 23.9372C88.7819 23.9121 88.7471 23.8869 88.7112 23.861C88.3568 23.6041 88.0065 23.3418 87.6572 23.078C87.7304 22.8472 87.8704 22.6755 88.0162 22.4863C88.0403 22.4545 88.0645 22.4227 88.0894 22.3899C88.2165 22.2229 88.3456 22.0577 88.4777 21.8945Z"></path>
<path fill="#1F1C3E" d="M83.6115 26.7931C83.7268 26.8845 83.7699 26.9963 83.8277 27.1292C83.5895 27.291 83.3506 27.4451 83.0984 27.5844C83.1116 27.6096 83.1248 27.6349 83.1383 27.6609C83.1637 27.7103 83.1637 27.7103 83.1896 27.7608C83.2065 27.7935 83.2234 27.8263 83.2409 27.86C83.2808 27.9486 83.2808 27.9486 83.2808 28.0396C83.3252 28.0133 83.3697 27.987 83.4155 27.9599C83.4741 27.9258 83.5327 27.8916 83.5913 27.8575C83.6206 27.8401 83.6499 27.8228 83.68 27.8049C83.9034 27.6754 83.9034 27.6754 84.0556 27.6754C84.1158 27.7956 84.176 27.9158 84.238 28.0396C84.1412 28.1005 84.0444 28.1612 83.9474 28.2217C83.9199 28.239 83.8924 28.2564 83.864 28.2743C83.6557 28.4037 83.6557 28.4037 83.5542 28.4037C83.6445 28.554 83.7347 28.7042 83.8277 28.8589C84.0419 28.7734 84.2108 28.6724 84.4019 28.5469C84.5114 28.4948 84.5114 28.4948 84.6115 28.5028C84.738 28.5605 84.7745 28.6443 84.8305 28.7679C84.7725 28.9416 84.712 28.9628 84.5576 29.0572C84.5112 29.0855 84.4649 29.1138 84.4172 29.143C84.3684 29.1722 84.3196 29.2015 84.2693 29.2316C84.221 29.2614 84.1728 29.2912 84.123 29.3219C84.0765 29.35 84.03 29.3781 83.9821 29.4071C83.9394 29.433 83.8967 29.4588 83.8528 29.4854C83.7366 29.5417 83.7366 29.5417 83.5542 29.5417C83.4689 29.4314 83.4689 29.4314 83.3814 29.277C83.3655 29.2495 83.3496 29.222 83.3333 29.1937C83.2819 29.1043 83.2315 29.0143 83.181 28.9244C83.1463 28.8634 83.1114 28.8025 83.0765 28.7416C83.008 28.6223 82.9399 28.5028 82.8719 28.3832C82.7307 28.1356 82.5812 27.8933 82.4316 27.6507C82.3691 27.5389 82.3691 27.5389 82.3691 27.4478C82.5215 27.3363 82.6842 27.2414 82.846 27.1443C82.927 27.0954 83.0073 27.0454 83.0876 26.9953C83.1384 26.9646 83.1892 26.9339 83.2416 26.9023C83.2884 26.8738 83.3352 26.8453 83.3834 26.816C83.5087 26.7651 83.5087 26.7651 83.6115 26.7931Z"></path>
<path fill="#1F1C3E" d="M89.4347 20.2556C89.555 20.3157 89.6754 20.3758 89.7993 20.4377C89.7728 20.639 89.696 20.7798 89.5914 20.9526C89.5622 21.0013 89.533 21.0499 89.5029 21.1C89.4804 21.1368 89.4579 21.1736 89.4347 21.2115C89.5615 21.3592 89.6505 21.3875 89.8449 21.4846C89.9652 21.2743 90.0856 21.064 90.2096 20.8474C90.483 20.9384 90.483 20.9384 90.6198 21.0294C90.5504 21.2248 90.4513 21.3977 90.3474 21.5762C90.2938 21.6632 90.2938 21.6632 90.3007 21.7578C90.4032 21.8303 90.4032 21.8303 90.5286 21.9C90.5709 21.9245 90.6132 21.9491 90.6568 21.9743C90.6897 21.993 90.7226 22.0116 90.7565 22.0309C90.774 21.9715 90.774 21.9715 90.7918 21.911C90.8492 21.7535 90.9208 21.63 91.0129 21.4903C91.0417 21.4463 91.0705 21.4023 91.1002 21.357C91.1331 21.3075 91.1331 21.3075 91.1668 21.257C91.2871 21.3171 91.4074 21.3772 91.5314 21.4391C91.5046 21.6203 91.4482 21.7492 91.355 21.9064C91.3288 21.9506 91.3026 21.9949 91.2756 22.0405C91.2482 22.0861 91.2207 22.1318 91.1924 22.1788C91.1651 22.2252 91.1378 22.2715 91.1097 22.3193C90.9053 22.6621 90.9053 22.6621 90.8021 22.7137C90.7016 22.669 90.7016 22.669 90.576 22.5979C90.5295 22.5718 90.483 22.5456 90.4351 22.5187C90.3601 22.4758 90.3601 22.4758 90.2836 22.432C90.2329 22.4033 90.1821 22.3745 90.1298 22.3449C89.6656 22.081 89.2068 21.8083 88.751 21.5302C88.8085 21.3412 88.879 21.1805 88.9807 21.0113C89.0071 20.967 89.0335 20.9227 89.0608 20.8771C89.0883 20.8316 89.1158 20.7861 89.1441 20.7393C89.1859 20.6695 89.1859 20.6695 89.2285 20.5983C89.297 20.4839 89.3657 20.3697 89.4347 20.2556Z"></path>
<path fill="#1F1C3E" d="M85.8332 24.9901C85.9625 25.0523 86.0614 25.1043 86.1523 25.2177C86.1523 25.2628 86.1523 25.3078 86.1523 25.3543C86.049 25.4508 86.049 25.4508 85.913 25.5563C85.7553 25.6793 85.607 25.8015 85.4686 25.946C85.5738 26.0662 85.6791 26.1864 85.7876 26.3102C85.8222 26.2806 85.8568 26.251 85.8925 26.2206C85.9378 26.1825 85.9831 26.1445 86.0298 26.1053C86.0747 26.0673 86.1197 26.0293 86.166 25.9901C86.289 25.9005 86.289 25.9005 86.4257 25.9005C86.6081 26.093 86.6081 26.093 86.6081 26.2647C86.4984 26.3676 86.4984 26.3676 86.3574 26.478C86.3108 26.5148 86.2643 26.5516 86.2164 26.5895C86.1621 26.6315 86.1621 26.6315 86.1067 26.6743C86.2734 26.9037 86.4473 27.1174 86.6435 27.3224C86.6619 27.3489 86.6803 27.3754 86.6992 27.4026C86.6371 27.5887 86.5386 27.6551 86.3802 27.7668C86.1998 27.7499 86.1267 27.6561 86.0128 27.5208C85.9789 27.4792 85.9789 27.4792 85.9443 27.4368C85.9204 27.4082 85.8966 27.3796 85.872 27.3502C85.8223 27.2908 85.7729 27.2313 85.7236 27.1716C85.6347 27.0646 85.5445 26.9587 85.4542 26.8529C85.212 26.569 84.9746 26.2812 84.7393 25.9915C84.8084 25.818 84.9099 25.7333 85.0555 25.6188C85.1221 25.5659 85.1221 25.5659 85.1901 25.5118C85.2369 25.4748 85.2836 25.4379 85.3318 25.3998C85.4261 25.3233 85.52 25.2463 85.6138 25.1693C85.7235 25.0797 85.7235 25.0797 85.8332 24.9901Z"></path>
<path fill="#1F1C3E" d="M71.4758 29.1776C72.073 29.2434 72.6624 29.3441 73.2535 29.4507C73.2384 29.5859 73.2234 29.7211 73.2079 29.8604C72.9731 29.8645 72.7558 29.8534 72.5242 29.8149C72.5213 29.8668 72.5213 29.8668 72.5183 29.9198C72.4922 30.3201 72.4331 30.7091 72.3618 31.1036C72.351 31.1645 72.3402 31.2254 72.3295 31.2863C72.3035 31.4332 72.2772 31.58 72.2507 31.7267C72.0602 31.7304 71.8896 31.7219 71.7037 31.6812C71.8007 31.0118 71.8988 30.3433 72.0228 29.6783C71.8272 29.6633 71.6317 29.6483 71.4302 29.6328C71.4245 29.3312 71.4245 29.3312 71.4758 29.1776Z"></path>
<path fill="#1F1C3E" d="M81.4125 27.9944C81.5159 28.2105 81.6189 28.4267 81.7216 28.6431C81.7566 28.7167 81.7916 28.7902 81.8268 28.8636C81.8774 28.9694 81.9276 29.0753 81.9778 29.1813C81.9935 29.2139 82.0093 29.2466 82.0255 29.2803C82.1021 29.4429 82.1627 29.5897 82.1874 29.7696C82.2357 29.7466 82.284 29.7236 82.3338 29.6999C82.397 29.6701 82.4603 29.6402 82.5236 29.6103C82.5554 29.5951 82.5872 29.5799 82.6201 29.5643C82.8608 29.451 82.8608 29.451 82.9623 29.451C83.0074 29.5862 83.0525 29.7214 83.099 29.8607C82.3173 30.2597 82.3173 30.2597 81.9139 30.4069C81.6913 29.9744 81.4797 29.5367 81.2734 29.0962C81.2466 29.0389 81.2197 28.9817 81.1926 28.9245C81.1542 28.843 81.1161 28.7612 81.078 28.6795C81.0557 28.6319 81.0334 28.5843 81.0105 28.5353C80.961 28.4145 80.9314 28.305 80.9111 28.1765C80.9689 28.1458 81.0268 28.1155 81.0849 28.0854C81.1172 28.0685 81.1494 28.0516 81.1827 28.0342C81.2758 27.9944 81.2758 27.9944 81.4125 27.9944Z"></path>
<path fill="#1F1C3E" d="M91.3034 13.7014C91.6163 13.6974 91.9212 13.7106 92.2325 13.7412C92.2753 13.7452 92.3182 13.7493 92.3623 13.7534C92.4975 13.7662 92.6326 13.7793 92.7677 13.7924C92.86 13.8012 92.9524 13.81 93.0447 13.8187C93.2696 13.8401 93.4944 13.8617 93.7192 13.8834C93.7229 14.0729 93.7184 14.2452 93.6736 14.4297C93.4467 14.4121 93.2199 14.3943 92.9931 14.3763C92.9163 14.3703 92.8395 14.3643 92.7627 14.3583C92.259 14.3193 91.7585 14.2696 91.2578 14.2021C91.2729 14.0368 91.2879 13.8716 91.3034 13.7014Z"></path>
</svg>
